<svg xmlns="http://www.w3.org/2000/svg" width="1440" height="740" viewBox="0 0 1440 740" role="img" aria-labelledby="title desc">
<title id="title">PiMesh — research across people and endpoints</title>
<desc id="desc">Researchers use independent local meshpi clients powered by Pi, preserving Sessions and Transcripts. The protected browser directory connects to an HTTPS API and PostgreSQL. Dashed team connections are planned; local transcripts are not automatically uploaded.</desc>
<defs>
  <radialGradient id="bg" cx="48%" cy="40%" r="75%"><stop stop-color="#163b32"/><stop offset="1" stop-color="#091614"/></radialGradient>
  <linearGradient id="panel" x2="0.8" y2="1"><stop stop-color="#17352e"/><stop offset="1" stop-color="#10241f"/></linearGradient>
  <linearGradient id="mint"><stop stop-color="#c5f6d5"/><stop offset="1" stop-color="#75d8ba"/></linearGradient>
  <pattern id="grid" width="32" height="32" patternUnits="userSpaceOnUse"><path d="M32 0H0V32" fill="none" stroke="#b4e9ce" stroke-opacity=".035"/></pattern>
  <marker id="arrow" viewBox="0 0 10 10" refX="9" refY="5" markerWidth="5" markerHeight="5" orient="auto"><path d="M1 1L9 5L1 9" fill="none" stroke="#8ac7ae" stroke-width="1.5"/></marker>
</defs>
<rect width="1440" height="740" rx="24" fill="url(#bg)"/>
<rect width="1440" height="740" rx="24" fill="url(#grid)"/>
<g font-family="Inter, -apple-system, BlinkMacSystemFont, Segoe UI, Arial, sans-serif">
  <text x="56" y="53" fill="#8cc8ac" font-size="12" letter-spacing="3">PIMESH / SYSTEM OVERVIEW</text>
  <text x="56" y="110" fill="#edf8f1" font-size="38" font-weight="600" letter-spacing="-1">Many researchers. One shared direction.</text>
  <text x="56" y="144" fill="#99b8aa" font-size="16">Independent local agents, with a path toward connected research.</text>
  <circle cx="1190" cy="51" r="4" fill="#a4e6be"/><text x="1203" y="56" fill="#b0c9bc" font-size="12">EARLY DEVELOPMENT</text>
  <path d="M56 178H1384" stroke="#325046"/>
  <text x="56" y="218" fill="#91b6a3" font-size="12" letter-spacing="2">01 / PEOPLE &amp; ENDPOINTS</text>
  <text x="457" y="218" fill="#91b6a3" font-size="12" letter-spacing="2">02 / LOCAL AGENT LOOP</text>
  <text x="998" y="218" fill="#91b6a3" font-size="12" letter-spacing="2">03 / TEAM DIRECTORY</text>
<rect x="56" y="252" width="296" height="85" rx="14" fill="url(#panel)" stroke="#335448"/>
 <circle cx="95" cy="294" r="20" fill="#284e3f"/><text x="95" y="300" text-anchor="middle" fill="#c5efd5" font-size="16">A</text>
 <text x="131" y="288" fill="#e1eee6" font-size="18" font-weight="500">Researcher A</text><text x="131" y="311" fill="#90b4a0" font-size="13">Endpoint 01 · local workspace</text>
 <path d="M352 294H378Q394 294 394 294V398H438" fill="none" stroke="#669d83" stroke-width="1.5"/>
<rect x="56" y="359" width="296" height="85" rx="14" fill="url(#panel)" stroke="#335448"/>
 <circle cx="95" cy="401" r="20" fill="#284e3f"/><text x="95" y="407" text-anchor="middle" fill="#c5efd5" font-size="16">B</text>
 <text x="131" y="395" fill="#e1eee6" font-size="18" font-weight="500">Researcher B</text><text x="131" y="418" fill="#90b4a0" font-size="13">Endpoint 02 · local workspace</text>
 <path d="M352 401H378Q394 401 394 401V398H438" fill="none" stroke="#669d83" stroke-width="1.5"/>
<rect x="56" y="466" width="296" height="85" rx="14" fill="url(#panel)" stroke="#335448"/>
 <circle cx="95" cy="508" r="20" fill="#284e3f"/><text x="95" y="514" text-anchor="middle" fill="#c5efd5" font-size="16">C</text>
 <text x="131" y="502" fill="#e1eee6" font-size="18" font-weight="500">Researcher C</text><text x="131" y="525" fill="#90b4a0" font-size="13">Endpoint 03 · local workspace</text>
 <path d="M352 508H378Q394 508 394 508V398H438" fill="none" stroke="#669d83" stroke-width="1.5"/>
<rect x="448" y="252" width="422" height="299" rx="18" fill="url(#panel)" stroke="#537b65"/>
 <rect x="470" y="273" width="112" height="23" rx="11" fill="#254d3d"/><text x="526" y="289" fill="#b6e9c8" font-size="10" text-anchor="middle" letter-spacing="1">PER ENDPOINT</text>
 <text x="478" y="343" fill="#ecf8ef" font-size="29" font-weight="600">meshpi</text>
 <text x="478" y="370" fill="#a0bfac" font-size="14">Pi Core · models + local tools</text>
 <path d="M786 316C823 321 827 359 803 377M803 377L805 361M803 377L819 373" fill="none" stroke="#a7e3bd" stroke-width="2"/>
 <path d="M776 378C741 369 744 332 761 321M761 321L746 324M761 321L758 337" fill="none" stroke="#5f967b" stroke-width="2"/>
 <path d="M479 399H839" stroke="#365346"/>
 <path d="M658 399V425M568 425H754M568 425V442M754 425V442" fill="none" stroke="#87b59a" marker-end="url(#arrow)"/>
 <rect x="477" y="450" width="171" height="74" rx="10" fill="#1d3c2e"/><text x="493" y="479" fill="#dcf2e2" font-size="17">Sessions</text><text x="493" y="501" fill="#9bbcaa" font-size="12">Continue &amp; resume</text>
 <rect x="665" y="450" width="177" height="74" rx="10" fill="#1d3c2e"/><text x="681" y="479" fill="#dcf2e2" font-size="17">Transcripts</text><text x="681" y="501" fill="#9bbcaa" font-size="12">Append-only history</text>
 <text x="456" y="578" fill="#95b4a2" font-size="13">~/.meshpi · Stored locally on each endpoint</text>
 <rect x="988" y="252" width="396" height="299" rx="18" fill="url(#panel)" stroke="#335448"/>
 <text x="1016" y="291" fill="#e0efe5" font-size="19" font-weight="500">Protected browser</text>
 <text x="1016" y="316" fill="#9bbcaa" font-size="13">Users · Teams · Memberships</text>
 <text x="1016" y="337" fill="#9bbcaa" font-size="13">Devices · Projects</text>
 <path d="M1186 354V377" stroke="#87b59a" stroke-width="1.5" marker-end="url(#arrow)"/>
 <rect x="1016" y="388" width="340" height="59" rx="10" fill="url(#mint)"/>
 <text x="1036" y="414" fill="#163d2b" font-size="18" font-weight="600">PiMesh API</text><text x="1036" y="433" fill="#356348" font-size="12">HTTPS · read-only access</text>
 <path d="M1186 448V474" stroke="#87b59a" stroke-width="1.5" marker-end="url(#arrow)"/>
 <text x="1186" y="507" text-anchor="middle" fill="#d6e9db" font-size="17">PostgreSQL</text>
 <path d="M870 359C918 359 941 417 986 417" fill="none" stroke="#9ac8af" stroke-width="1.5" stroke-dasharray="5 6" marker-end="url(#arrow)"/>
 <text x="926" y="344" fill="#accbb9" font-size="10" text-anchor="middle" letter-spacing="1">PLANNED</text>
 <path d="M56 612H1384" stroke="#325046"/>
 <text x="56" y="649" fill="#d5ebdc" font-size="12" letter-spacing="2">NEXT / CONNECTED RESEARCH</text>
 <text x="56" y="680" fill="#9abbA8" font-size="15">Verified identity · Project collaboration · Shared research memory</text>
 <path d="M1002 645H1032" stroke="#91c8a7" stroke-width="1.5"/><text x="1043" y="649" fill="#a0bdac" font-size="12">Implemented</text>
 <path d="M1175 645H1205" stroke="#91c8a7" stroke-width="1.5" stroke-dasharray="4 4"/><text x="1216" y="649" fill="#a0bdac" font-size="12">Planned</text>
 <text x="1002" y="680" fill="#a0bdac" font-size="12">No automatic Transcript upload.</text>
</g>
</svg>
